<svg width="43" height="43" viewBox="0 0 43 43" fill="none" xmlns="http://www.w3.org/2000/svg">
<path d="M21.31 42.62C20.96 42.62 20.61 42.62 20.26 42.59C19.91 42.57 19.56 42.55 19.22 42.51C18.87 42.48 18.53 42.43 18.18 42.38C17.84 42.33 17.49 42.27 17.15 42.2C16.81 42.13 16.47 42.06 16.13 41.97C15.79 41.89 15.46 41.79 15.12 41.69C14.79 41.59 14.46 41.48 14.13 41.36C13.8 41.24 13.48 41.12 13.15 40.98C12.83 40.85 12.51 40.7 12.19 40.56C11.87 40.41 11.56 40.25 11.26 40.09C10.96 39.93 10.65 39.75 10.35 39.57C10.05 39.39 9.75999 39.2 9.46999 39.01C9.17999 38.82 8.88999 38.62 8.60999 38.41C8.32999 38.2 8.04999 37.99 7.78999 37.77C7.51999 37.55 7.25999 37.32 6.99999 37.09C6.73999 36.86 6.48999 36.62 6.23999 36.37C5.98999 36.12 5.74999 35.87 5.51999 35.61C5.28999 35.35 5.05999 35.09 4.83999 34.82C4.61999 34.55 4.39999 34.28 4.19999 34C3.98999 33.72 3.78999 33.43 3.59999 33.15C3.40999 32.86 3.21999 32.57 3.03999 32.27C2.85999 31.97 2.68999 31.67 2.51999 31.36C2.35999 31.05 2.19999 30.74 2.04999 30.43C1.89999 30.11 1.75999 29.8 1.62999 29.47C1.49999 29.15 1.36999 28.82 1.24999 28.49C1.12999 28.16 1.01999 27.83 0.91999 27.5C0.81999 27.17 0.72999 26.83 0.63999 26.49C0.55999 26.15 0.47999 25.81 0.40999 25.47C0.33999 25.13 0.27999 24.78 0.22999 24.44C0.17999 24.1 0.13999 23.75 0.0999902 23.4C0.0699902 23.05 0.0399902 22.71 0.0199902 22.36C-9.76585e-06 22.01 -0.0100098 21.66 -0.0100098 21.31C-0.0100098 20.96 -0.0100098 20.61 0.0199902 20.26C0.0399902 19.91 0.0599902 19.56 0.0999902 19.22C0.12999 18.87 0.17999 18.53 0.22999 18.18C0.27999 17.83 0.33999 17.49 0.40999 17.15C0.47999 16.81 0.54999 16.47 0.63999 16.13C0.71999 15.79 0.81999 15.46 0.91999 15.12C1.01999 14.79 1.12999 14.46 1.24999 14.13C1.36999 13.8 1.48999 13.48 1.62999 13.15C1.75999 12.83 1.90999 12.51 2.04999 12.19C2.19999 11.87 2.35999 11.56 2.51999 11.26C2.67999 10.95 2.85999 10.65 3.03999 10.35C3.21999 10.05 3.40999 9.76 3.59999 9.47C3.78999 9.18 3.98999 8.9 4.19999 8.62C4.40999 8.34 4.61999 8.06 4.83999 7.79C5.05999 7.52 5.28999 7.26 5.51999 7C5.74999 6.74 5.98999 6.49 6.23999 6.24C6.48999 5.99 6.73999 5.75 6.99999 5.52C7.25999 5.29 7.51999 5.06 7.78999 4.84C8.05999 4.62 8.32999 4.4 8.60999 4.2C8.88999 3.99 9.17999 3.79 9.46999 3.6C9.75999 3.41 10.05 3.22 10.35 3.04C10.65 2.86 10.95 2.69 11.26 2.52C11.57 2.36 11.88 2.2 12.19 2.05C12.51 1.9 12.82 1.76 13.15 1.63C13.47 1.5 13.8 1.37 14.13 1.25C14.46 1.13 14.79 1.02 15.12 0.92C15.45 0.82 15.79 0.73 16.13 0.64C16.47 0.56 16.81 0.48 17.15 0.41C17.49 0.34 17.84 0.28 18.18 0.23C18.52 0.18 18.87 0.14 19.22 0.1C19.57 0.07 19.91 0.04 20.26 0.02C20.61 0 20.96 0 21.31 0C21.66 0 22.01 0 22.36 0.03C22.71 0.05 23.06 0.07 23.4 0.11C23.75 0.14 24.09 0.19 24.44 0.24C24.79 0.29 25.13 0.35 25.47 0.42C25.81 0.49 26.15 0.56 26.49 0.65C26.83 0.73 27.16 0.83 27.5 0.93C27.83 1.03 28.17 1.14 28.49 1.26C28.82 1.38 29.14 1.5 29.47 1.64C29.79 1.77 30.11 1.91 30.43 2.06C30.74 2.21 31.06 2.37 31.36 2.53C31.67 2.69 31.97 2.87 32.27 3.05C32.57 3.23 32.86 3.42 33.15 3.61C33.44 3.8 33.73 4 34 4.21C34.28 4.42 34.56 4.63 34.83 4.85C35.1 5.07 35.36 5.3 35.62 5.53C35.88 5.76 36.13 6 36.38 6.25C36.63 6.5 36.87 6.75 37.1 7.01C37.33 7.27 37.56 7.53 37.78 7.8C38 8.07 38.22 8.34 38.42 8.63C38.63 8.91 38.83 9.19 39.02 9.48C39.21 9.77 39.4 10.06 39.58 10.36C39.76 10.66 39.93 10.96 40.1 11.27C40.26 11.58 40.42 11.89 40.57 12.2C40.72 12.52 40.86 12.83 40.99 13.16C41.12 13.48 41.25 13.81 41.37 14.14C41.49 14.47 41.6 14.8 41.7 15.13C41.8 15.46 41.89 15.8 41.98 16.14C42.06 16.48 42.14 16.82 42.21 17.16C42.28 17.5 42.34 17.85 42.39 18.19C42.44 18.53 42.48 18.88 42.52 19.23C42.55 19.58 42.58 19.92 42.6 20.27C42.62 20.62 42.63 20.97 42.63 21.32C42.63 21.67 42.63 22.02 42.6 22.37C42.58 22.72 42.56 23.07 42.52 23.41C42.49 23.76 42.44 24.1 42.39 24.45C42.34 24.79 42.28 25.14 42.21 25.48C42.14 25.82 42.07 26.16 41.98 26.5C41.9 26.84 41.8 27.17 41.7 27.51C41.6 27.84 41.49 28.18 41.37 28.5C41.25 28.83 41.13 29.15 40.99 29.48C40.86 29.8 40.72 30.12 40.57 30.44C40.42 30.75 40.26 31.07 40.1 31.37C39.94 31.68 39.76 31.98 39.58 32.28C39.4 32.58 39.21 32.87 39.02 33.16C38.83 33.45 38.63 33.73 38.42 34.01C38.21 34.29 38 34.57 37.78 34.83C37.56 35.1 37.33 35.36 37.1 35.62C36.87 35.88 36.63 36.13 36.38 36.38C36.13 36.63 35.88 36.87 35.62 37.1C35.36 37.33 35.1 37.56 34.83 37.78C34.56 38 34.29 38.22 34 38.42C33.72 38.63 33.44 38.83 33.15 39.02C32.86 39.21 32.57 39.4 32.27 39.58C31.97 39.76 31.67 39.93 31.36 40.1C31.05 40.26 30.74 40.42 30.43 40.57C30.11 40.72 29.8 40.86 29.47 40.99C29.15 41.12 28.82 41.25 28.49 41.37C28.16 41.49 27.83 41.6 27.5 41.7C27.17 41.8 26.83 41.89 26.49 41.98C26.15 42.06 25.81 42.14 25.47 42.21C25.13 42.28 24.78 42.34 24.44 42.39C24.1 42.44 23.75 42.48 23.4 42.52C23.05 42.55 22.71 42.58 22.36 42.6C22.01 42.62 21.66 42.63 21.31 42.63V42.62Z" fill="black"/>
<path d="M19.38 6.56006C20.12 6.56006 20.68 6.64006 21.03 6.71006V16.3201C21.03 16.5701 21.19 16.7801 21.42 16.8501C21.52 16.8801 21.63 16.9201 21.73 16.9601C21.9 17.0301 22.07 17.1201 22.23 17.2201C22.39 17.3201 22.53 17.4301 22.67 17.5601C23.35 18.1701 23.77 19.0601 23.77 20.0201V29.9601C23.77 30.8101 23.43 31.6401 22.83 32.2401C22.78 32.2901 22.73 32.3401 22.67 32.3801C22.53 32.5101 22.38 32.6201 22.22 32.7101C22.06 32.8101 21.88 32.9001 21.69 32.9601C21.33 33.1101 20.94 33.1801 20.55 33.1801H18.21C17.35 33.1801 16.54 32.8501 15.93 32.2401C15.32 31.6301 14.99 30.8101 14.99 29.9601V20.0201C14.99 18.5701 15.96 17.2701 17.34 16.8501C17.58 16.7801 17.74 16.5701 17.74 16.3201V6.71006C18.08 6.64006 18.65 6.56006 19.38 6.56006ZM19.38 5.31006C18.48 5.31006 17.81 5.42006 17.49 5.49006L16.49 5.70006V15.8301C14.84 16.5501 13.74 18.2001 13.74 20.0201V29.9601C13.74 31.1401 14.22 32.2901 15.05 33.1201C15.89 33.9601 17.02 34.4301 18.21 34.4301H20.55C21.1 34.4301 21.63 34.3301 22.12 34.1301C22.37 34.0501 22.62 33.9301 22.86 33.7801C23.07 33.6601 23.27 33.5101 23.46 33.3501C23.57 33.2601 23.66 33.1801 23.71 33.1201C24.54 32.2901 25.02 31.1401 25.02 29.9601V20.0201C25.02 18.7301 24.47 17.4901 23.5 16.6301C23.31 16.4601 23.11 16.3001 22.89 16.1601C22.69 16.0301 22.48 15.9201 22.28 15.8401V5.68006L21.28 5.48006C20.88 5.40006 20.23 5.31006 19.38 5.31006Z" fill="#FAF8F2"/>
<path d="M24.38 21.09H14.37V29.32H24.38V21.09Z" fill="#FAF8F2"/>
<path d="M12.6172 23.0693C12.6172 23.1969 12.6104 23.304 12.5967 23.3906C12.583 23.4772 12.5625 23.5479 12.5352 23.6025C12.5078 23.6527 12.4759 23.6891 12.4395 23.7119C12.403 23.7347 12.3643 23.7461 12.3232 23.7461H10.1973V26.0635C10.1973 26.109 10.1859 26.1501 10.1631 26.1865C10.1403 26.2184 10.1016 26.248 10.0469 26.2754C9.99219 26.2982 9.91927 26.3164 9.82812 26.3301C9.73698 26.3438 9.62305 26.3506 9.48633 26.3506C9.34961 26.3506 9.23568 26.3438 9.14453 26.3301C9.05339 26.3164 8.98047 26.2982 8.92578 26.2754C8.87109 26.248 8.83008 26.2184 8.80273 26.1865C8.77995 26.1501 8.76855 26.109 8.76855 26.0635V23.7461H6.64941C6.6084 23.7461 6.56966 23.7347 6.5332 23.7119C6.5013 23.6891 6.47168 23.6527 6.44434 23.6025C6.41699 23.5479 6.39421 23.4772 6.37598 23.3906C6.3623 23.304 6.35547 23.1969 6.35547 23.0693C6.35547 22.9463 6.3623 22.8415 6.37598 22.7549C6.38965 22.6637 6.40788 22.5931 6.43066 22.543C6.45801 22.4883 6.48763 22.4495 6.51953 22.4268C6.55143 22.404 6.58789 22.3926 6.62891 22.3926H8.76855V20.082C8.76855 20.0365 8.77995 19.9954 8.80273 19.959C8.83008 19.918 8.87109 19.8861 8.92578 19.8633C8.98047 19.8359 9.05339 19.8154 9.14453 19.8018C9.23568 19.7881 9.34961 19.7812 9.48633 19.7812C9.62305 19.7812 9.73698 19.7881 9.82812 19.8018C9.91927 19.8154 9.99219 19.8359 10.0469 19.8633C10.1016 19.8861 10.1403 19.918 10.1631 19.959C10.1859 19.9954 10.1973 20.0365 10.1973 20.082V22.3926H12.3438C12.3802 22.3926 12.4144 22.404 12.4463 22.4268C12.4827 22.4495 12.5124 22.4883 12.5352 22.543C12.5625 22.5931 12.583 22.6637 12.5967 22.7549C12.6104 22.8415 12.6172 22.9463 12.6172 23.0693Z" fill="#FAF8F2"/>
<path d="M28.42 17C28.42 16.12 28.78 15.27 29.42 14.64C30.06 14.01 30.93 13.66 31.83 13.66C32.73 13.66 33.6 14.01 34.24 14.64C34.88 15.27 35.24 16.11 35.24 17C35.24 17.89 34.88 18.73 34.24 19.36C33.6 19.99 32.73 20.34 31.83 20.34C30.93 20.34 30.06 19.99 29.42 19.36C28.78 18.73 28.42 17.89 28.42 17ZM31.83 11C30.88 11 29.94 11.22 29.09 11.63C28.24 12.05 27.5 12.65 26.92 13.39C26.35 14.13 25.96 15 25.79 15.91C25.62 16.82 25.67 17.77 25.93 18.66C26.19 19.55 26.67 20.38 27.31 21.06C27.95 21.74 28.75 22.27 29.64 22.6C30.53 22.93 31.49 23.06 32.43 22.97C33.38 22.88 34.29 22.57 35.1 22.08L37.01 23.94C37.27 24.18 37.61 24.32 37.97 24.31C38.33 24.31 38.67 24.17 38.92 23.92C39.17 23.67 39.32 23.34 39.32 22.99C39.32 22.64 39.19 22.3 38.94 22.05L37.03 20.19C37.61 19.28 37.94 18.24 37.97 17.16C38 16.09 37.74 15.03 37.21 14.09C36.68 13.15 35.9 12.37 34.95 11.82C34 11.27 32.93 10.99 31.83 10.99V11Z" fill="#FAF8F2" stroke="black" stroke-miterlimit="10"/>
</svg>

