<svg width="43" height="45" viewBox="0 0 43 45" fill="none" xmlns="http://www.w3.org/2000/svg">
<circle cx="21.31" cy="23.31" r="21.31" fill="black"/>
<path fill-rule="evenodd" clip-rule="evenodd" d="M10.3684 15.263C10.3684 11.4842 13.4317 8.4209 17.2105 8.4209C20.9893 8.4209 24.0526 11.4842 24.0526 15.263C24.0526 19.0418 20.9893 22.1051 17.2105 22.1051C13.4317 22.1051 10.3684 19.0418 10.3684 15.263Z" fill="#F9F9F2"/>
<path d="M25.1413 18.5912C25.0735 18.7209 25.1023 18.8825 25.2188 18.9697C26.0847 19.6171 27.1561 19.9999 28.3159 19.9999C31.1935 19.9999 33.5263 17.6436 33.5263 14.7368C33.5263 11.83 31.1935 9.47363 28.3159 9.47363C27.1561 9.47363 26.0847 9.85649 25.2188 10.5039C25.1023 10.5911 25.0735 10.7527 25.1413 10.8823C25.7426 12.0333 26.0829 13.3449 26.0829 14.7368C26.0829 16.1287 25.7426 17.4402 25.1413 18.5912Z" fill="#F9F9F2"/>
<path fill-rule="evenodd" clip-rule="evenodd" d="M10.2291 24.3355C12.1332 23.4346 14.6316 23.1577 17.7365 23.1577C20.8442 23.1577 23.3443 23.4351 25.2492 24.338C27.3241 25.3214 28.5852 26.9965 29.2462 29.3617C29.556 30.4702 28.7921 31.5788 27.7394 31.5788H7.73656C6.6826 31.5788 5.91708 30.4685 6.22783 29.358C6.88972 26.9925 8.15277 25.3179 10.2291 24.3355Z" fill="#F9F9F2"/>
<path fill-rule="evenodd" clip-rule="evenodd" d="M25.2446 35.6645C23.3404 36.5654 20.842 36.8423 17.7371 36.8423C14.6295 36.8423 12.1293 36.5649 10.2245 35.662C8.14952 34.6786 6.88839 33.0035 6.22738 30.6383C5.91759 29.5298 6.6815 28.4212 7.73419 28.4212H27.7371C28.791 28.4212 29.5566 29.5315 29.2458 30.642C28.5839 33.0075 27.3209 34.6821 25.2446 35.6645Z" fill="#F9F9F2"/>
<path d="M26.6114 22.1641C25.9718 22.2047 25.9343 23.0827 26.5219 23.3438C28.1323 24.0594 29.3448 25.1129 30.2144 26.4574C30.928 27.5607 32.0361 28.4213 33.3302 28.4213H36.0809C37.1734 28.4213 37.9705 27.3119 37.5862 26.2282C37.5641 26.1658 37.5411 26.104 37.5173 26.0425C36.9883 24.6776 36.0817 23.6728 34.7392 23.0324C33.4788 22.4311 31.9009 22.1829 30.042 22.1079L30.0114 22.1066H29.981C28.886 22.1066 27.7424 22.0923 26.6114 22.1641Z" fill="#F9F9F2"/>
</svg>
