<svg width="43" height="43" viewBox="0 0 43 43" fill="none" xmlns="http://www.w3.org/2000/svg">
<path d="M21.82 42.36C21.4736 42.36 21.1268 42.3516 20.7809 42.3347C20.4345 42.3173 20.0892 42.2919 19.7438 42.2581C19.3989 42.2238 19.055 42.1816 18.7121 42.1309C18.3693 42.0797 18.0279 42.0206 17.688 41.953C17.3481 41.8854 17.0101 41.8094 16.6737 41.7254C16.3373 41.6409 16.0033 41.5485 15.6719 41.4481C15.3399 41.3472 15.011 41.2384 14.6845 41.1216C14.3585 41.0048 14.035 40.8806 13.7149 40.7479C13.3944 40.6152 13.0779 40.4746 12.7643 40.3265C12.4512 40.1784 12.1416 40.0224 11.836 39.8589C11.5304 39.6954 11.2288 39.525 10.9311 39.3466C10.6339 39.1687 10.3412 38.9833 10.053 38.7905C9.76478 38.5977 9.48152 38.3984 9.20324 38.1917C8.92495 37.9855 8.65164 37.7723 8.38379 37.5521C8.11544 37.3325 7.85306 37.1059 7.59664 36.8733C7.33972 36.6407 7.08876 36.4017 6.84328 36.1567C6.59829 35.9112 6.35926 35.6603 6.12669 35.4034C5.89413 35.1469 5.66752 34.8846 5.44788 34.6162C5.22773 34.3484 5.01455 34.075 4.80832 33.7968C4.60159 33.5185 4.40232 33.2352 4.20951 32.947C4.01669 32.6588 3.83134 32.3661 3.65343 32.0689C3.47503 31.7712 3.30458 31.4696 3.14109 31.164C2.9776 30.8584 2.82156 30.5488 2.67347 30.2357C2.52538 29.9221 2.38475 29.6056 2.25207 29.2851C2.11938 28.965 1.99515 28.6415 1.87837 28.3155C1.76159 27.989 1.65276 27.6601 1.55188 27.3281C1.4515 26.9967 1.35907 26.6627 1.27459 26.3263C1.19061 25.9899 1.11458 25.6519 1.04699 25.312C0.979408 24.9721 0.920272 24.6307 0.869088 24.2878C0.8184 23.945 0.77616 23.6011 0.741872 23.2562C0.70808 22.9108 0.682736 22.5655 0.665343 22.2191C0.648447 21.8732 0.639999 21.5264 0.639999 21.18C0.639999 20.8331 0.648447 20.4868 0.665343 20.1409C0.682736 19.7945 0.70808 19.4492 0.741872 19.1038C0.77616 18.7589 0.8184 18.415 0.869088 18.0721C0.920273 17.7293 0.979408 17.3879 1.04699 17.048C1.11458 16.7081 1.19061 16.3696 1.27459 16.0337C1.35907 15.6973 1.4515 15.3633 1.55188 15.0319C1.65276 14.6999 1.76159 14.371 1.87837 14.0445C1.99515 13.7185 2.11938 13.395 2.25207 13.0749C2.38475 12.7544 2.52538 12.4379 2.67347 12.1243C2.82156 11.8112 2.9776 11.5016 3.14109 11.196C3.30458 10.8899 3.47503 10.5888 3.65343 10.2911C3.83134 9.99392 4.01669 9.70122 4.20951 9.413C4.40232 9.12478 4.60159 8.84152 4.80832 8.56324C5.01455 8.28445 5.22773 8.01163 5.44788 7.74329C5.66752 7.47544 5.89413 7.21306 6.12669 6.95614C6.35926 6.69972 6.59829 6.44876 6.84328 6.20328C7.08877 5.95829 7.33972 5.71926 7.59664 5.48669C7.85306 5.25363 8.11544 5.02752 8.38379 4.80738C8.65164 4.58773 8.92495 4.37454 9.20324 4.16782C9.48152 3.96159 9.76478 3.76182 10.053 3.56951C10.3412 3.37669 10.6339 3.19134 10.9311 3.01343C11.2288 2.83503 11.5304 2.66408 11.836 2.50109C12.1416 2.3376 12.4512 2.18156 12.7643 2.03347C13.0779 1.88538 13.3944 1.74475 13.7149 1.61207C14.035 1.47938 14.3585 1.35465 14.6845 1.23787C15.011 1.12109 15.3399 1.01276 15.6719 0.91188C16.0033 0.811499 16.3373 0.719068 16.6737 0.634589C17.0101 0.550606 17.3481 0.474575 17.688 0.406991C18.0279 0.339408 18.3693 0.280272 18.7121 0.229087C19.055 0.1784 19.3989 0.13616 19.7438 0.101871C20.0892 0.0680795 20.4345 0.0427356 20.7809 0.0253429C21.1268 0.00844693 21.4736 -9.40947e-07 21.82 -9.25807e-07C22.1669 -9.10645e-07 22.5132 0.00844699 22.8591 0.025343C23.2055 0.0427357 23.5508 0.0680797 23.8962 0.101871C24.2411 0.13616 24.585 0.1784 24.9279 0.229088C25.2707 0.280272 25.6121 0.339408 25.952 0.406992C26.2919 0.474575 26.6299 0.550607 26.9663 0.634589C27.3027 0.719069 27.6367 0.811499 27.9681 0.911881C28.3001 1.01276 28.629 1.12109 28.9555 1.23787C29.2815 1.35465 29.605 1.47938 29.9251 1.61207C30.2456 1.74475 30.5621 1.88538 30.8757 2.03347C31.1888 2.18156 31.4984 2.3376 31.804 2.50109C32.1101 2.66408 32.4112 2.83503 32.7089 3.01343C33.0061 3.19134 33.2988 3.37669 33.587 3.56951C33.8752 3.76182 34.1585 3.96159 34.4368 4.16782C34.7155 4.37455 34.9884 4.58773 35.2567 4.80738C35.5246 5.02752 35.7869 5.25363 36.0439 5.48669C36.3003 5.71926 36.5512 5.95829 36.7967 6.20328C37.0417 6.44877 37.2807 6.69972 37.5133 6.95614C37.7464 7.21306 37.9725 7.47544 38.1926 7.74329C38.4123 8.01164 38.6255 8.28446 38.8322 8.56324C39.0384 8.84152 39.2382 9.12478 39.4305 9.413C39.6233 9.70123 39.8087 9.99392 39.9866 10.2911C40.165 10.5888 40.3359 10.8899 40.4989 11.196C40.6624 11.5016 40.8184 11.8112 40.9665 12.1243C41.1146 12.4379 41.2552 12.7544 41.3879 13.0749C41.5206 13.395 41.6453 13.7185 41.7621 14.0445C41.8789 14.371 41.9872 14.6999 42.0881 15.0319C42.1885 15.3633 42.2809 15.6973 42.3654 16.0337C42.4494 16.3696 42.5254 16.7081 42.593 17.048C42.6606 17.3879 42.7197 17.7293 42.7709 18.0721C42.8216 18.415 42.8638 18.7589 42.8981 19.1038C42.9319 19.4492 42.9573 19.7945 42.9747 20.1409C42.9916 20.4868 43 20.8331 43 21.18C43 21.5264 42.9916 21.8732 42.9747 22.2191C42.9573 22.5655 42.9319 22.9108 42.8981 23.2562C42.8638 23.6011 42.8216 23.945 42.7709 24.2879C42.7197 24.6307 42.6606 24.9721 42.593 25.312C42.5254 25.6519 42.4494 25.9899 42.3654 26.3263C42.2809 26.6627 42.1885 26.9967 42.0881 27.3281C41.9872 27.6601 41.8789 27.989 41.7621 28.3155C41.6453 28.6415 41.5206 28.965 41.3879 29.2851C41.2552 29.6056 41.1146 29.9221 40.9665 30.2357C40.8184 30.5488 40.6624 30.8584 40.4989 31.164C40.3359 31.4701 40.165 31.7712 39.9866 32.0689C39.8087 32.3661 39.6233 32.6588 39.4305 32.947C39.2382 33.2352 39.0384 33.5185 38.8322 33.7968C38.6255 34.075 38.4123 34.3484 38.1926 34.6162C37.9725 34.8846 37.7464 35.1469 37.5133 35.4034C37.2807 35.6603 37.0417 35.9112 36.7967 36.1567C36.5512 36.4017 36.3003 36.6407 36.0439 36.8733C35.7869 37.1059 35.5246 37.3325 35.2567 37.5521C34.9884 37.7723 34.7155 37.9855 34.4368 38.1917C34.1585 38.3984 33.8752 38.5977 33.587 38.7905C33.2988 38.9833 33.0061 39.1687 32.7089 39.3466C32.4112 39.525 32.1101 39.6954 31.804 39.8589C31.4984 40.0224 31.1888 40.1784 30.8757 40.3265C30.5621 40.4746 30.2456 40.6152 29.9251 40.7479C29.605 40.8806 29.2815 41.0048 28.9555 41.1216C28.629 41.2384 28.3001 41.3472 27.9681 41.4481C27.6367 41.5485 27.3027 41.6409 26.9663 41.7254C26.6299 41.8094 26.2919 41.8854 25.952 41.953C25.6121 42.0206 25.2707 42.0797 24.9278 42.1309C24.585 42.1816 24.2411 42.2238 23.8962 42.2581C23.5508 42.2919 23.2055 42.3173 22.8591 42.3347C22.5132 42.3516 22.1669 42.36 21.82 42.36Z" fill="black"/>
<mask id="mask0_107_660" style="mask-type:luminance" maskUnits="userSpaceOnUse" x="9" y="6" width="25" height="30">
<path d="M33.744 6.89099L33.744 35.695L9.61402 35.695L9.61402 6.89099L33.744 6.89099Z" fill="white"/>
</mask>
<g mask="url(#mask0_107_660)">
<path d="M29.4235 35.7208C30.5765 35.7208 31.6635 35.2703 32.476 34.4578C33.294 33.6398 33.744 32.5528 33.744 31.4003L33.744 21.4583C33.744 19.6683 32.6355 18.0433 30.9995 17.3793L30.9995 7.72279C30.9995 7.48679 30.8455 7.27779 30.6205 7.20129C30.5875 7.19029 29.698 6.89929 28.2545 6.89929C26.8105 6.89929 25.9215 7.19029 25.883 7.20129C25.658 7.27779 25.5095 7.48679 25.5095 7.72279L25.5095 17.3793C25.3175 17.4558 25.1365 17.5493 24.9605 17.6538C24.785 17.5493 24.604 17.4558 24.4115 17.3793L24.4115 7.72279C24.4115 7.48679 24.258 7.27779 24.033 7.20129C24 7.19029 23.1105 6.89929 21.6665 6.89929C20.223 6.89929 19.3335 7.19029 19.295 7.20129C19.07 7.27779 18.922 7.48679 18.922 7.72279L18.922 17.3793C18.7295 17.4558 18.5485 17.5493 18.373 17.6538C18.197 17.5493 18.016 17.4558 17.824 17.3793L17.824 7.72279C17.824 7.48679 17.67 7.27779 17.445 7.20129C17.412 7.19029 16.5225 6.89929 15.079 6.89929C13.635 6.89929 12.746 7.19029 12.7075 7.20129C12.4825 7.27779 12.334 7.48679 12.334 7.72279L12.334 17.3793C10.698 18.0433 9.58902 19.6683 9.58902 21.4583L9.58902 31.4003C9.58902 32.5528 10.0395 33.6398 10.852 34.4578C11.67 35.2703 12.7515 35.7208 13.904 35.7208L16.248 35.7208C17.0005 35.7208 17.7305 35.5283 18.3675 35.1608C19.0095 35.5283 19.7345 35.7208 20.492 35.7208L22.836 35.7208C23.588 35.7208 24.3185 35.5283 24.955 35.1608C25.5975 35.5283 26.322 35.7208 27.0795 35.7208L29.4235 35.7208ZM32.6465 30.2308L29.9015 30.2308L29.9015 23.6428L32.6465 23.6428L32.6465 30.2308ZM26.212 18.2903C26.4485 18.2248 26.6075 18.0103 26.6075 17.7633L26.6075 8.15079C26.948 8.07929 27.519 7.99729 28.2545 7.99729C28.99 7.99729 29.5555 8.07929 29.9015 8.15079L29.9015 17.7633C29.9015 18.0103 30.0605 18.2248 30.291 18.2903C31.6745 18.7078 32.6465 20.0088 32.6465 21.4583L32.6465 22.5453L29.3525 22.5453C29.045 22.5453 28.8035 22.7923 28.8035 23.0943L28.8035 30.7798C28.8035 31.0818 29.045 31.3288 29.3525 31.3288L32.6465 31.3288L32.6465 31.4003C32.6465 32.2508 32.3005 33.0798 31.702 33.6783C31.1035 34.2768 30.269 34.6228 29.4235 34.6228L27.0795 34.6228C26.6845 34.6228 26.2945 34.5513 25.9325 34.4083C26.723 33.5958 27.1565 32.5308 27.1565 31.4003L27.1565 21.4583C27.1565 20.2943 26.69 19.2018 25.9105 18.4003C26.009 18.3563 26.108 18.3233 26.212 18.2903ZM13.904 34.6228C13.0475 34.6228 12.2355 34.2878 11.626 33.6783C11.0275 33.0798 10.687 32.2508 10.687 31.4003L10.687 21.4583C10.687 20.0088 11.6535 18.7078 13.0365 18.2903C13.273 18.2248 13.432 18.0103 13.432 17.7633L13.432 8.15079C13.7725 8.07929 14.3435 7.99729 15.079 7.99729C15.8145 7.99729 16.38 8.07929 16.726 8.15079L16.726 17.7633C16.726 18.0103 16.885 18.2248 17.1155 18.2903C17.22 18.3233 17.3245 18.3618 17.423 18.4003C17.599 18.4718 17.769 18.5593 17.9225 18.6638C18.082 18.7623 18.23 18.8723 18.3675 19.0043C19.048 19.6133 19.471 20.5028 19.471 21.4583L19.471 22.5453L16.177 22.5453C15.8695 22.5453 15.628 22.7923 15.628 23.0943L15.628 30.7798C15.628 31.0818 15.8695 31.3288 16.177 31.3288L19.471 31.3288L19.471 31.4003C19.471 32.2508 19.125 33.0798 18.5265 33.6783C18.477 33.7278 18.4225 33.7773 18.3675 33.8213C18.23 33.9473 18.0765 34.0573 17.917 34.1503C17.7525 34.2548 17.5715 34.3428 17.39 34.4028C17.028 34.5513 16.638 34.6228 16.248 34.6228L13.904 34.6228ZM17.275 30.2308L16.726 30.2308L16.726 23.6428L19.471 23.6428L19.471 30.2308L17.275 30.2308ZM20.492 34.6228C20.0965 34.6228 19.707 34.5513 19.3445 34.4083C20.135 33.5958 20.5685 32.5308 20.5685 31.4003L20.5685 21.4583C20.5685 20.2943 20.102 19.2018 19.3225 18.4003C19.4215 18.3563 19.52 18.3233 19.6245 18.2903C19.8605 18.2248 20.0195 18.0103 20.0195 17.7633L20.0195 8.15079C20.36 8.07929 20.931 7.99729 21.6665 7.99729C22.4025 7.99729 22.968 8.07929 23.3135 8.15079L23.3135 17.7633C23.3135 18.0103 23.473 18.2248 23.7035 18.2903C23.8075 18.3233 23.912 18.3618 24.011 18.4003C24.3625 18.5483 24.6805 18.7518 24.955 19.0043C25.636 19.6133 26.0585 20.5028 26.0585 21.4583L26.0585 22.5453L22.7645 22.5453C22.457 22.5453 22.2155 22.7923 22.2155 23.0943L22.2155 30.7798C22.2155 31.0818 22.457 31.3288 22.7645 31.3288L26.0585 31.3288L26.0585 31.4003C26.0585 32.2508 25.7125 33.0798 25.1145 33.6783C25.065 33.7278 25.01 33.7773 24.955 33.8213C24.664 34.0793 24.3345 34.2768 23.978 34.4028C23.6155 34.5513 23.226 34.6228 22.836 34.6228L20.492 34.6228ZM23.8625 30.2308L23.3135 30.2308L23.3135 23.6428L26.0585 23.6428L26.0585 30.2308L23.8625 30.2308Z" fill="#F9F9F2"/>
</g>
<mask id="mask1_107_660" style="mask-type:luminance" maskUnits="userSpaceOnUse" x="22" y="24" width="4" height="4">
<path d="M25.55 24.7195L25.55 27.721L22.4575 27.721L22.4575 24.7195L25.55 24.7195Z" fill="white"/>
</mask>
<g mask="url(#mask1_107_660)">
<mask id="mask2_107_660" style="mask-type:luminance" maskUnits="userSpaceOnUse" x="22" y="24" width="4" height="4">
<path d="M24.4505 27.7124C23.505 27.7124 23.244 27.6039 23.059 27.4624C22.8745 27.3214 22.7115 27.1039 22.6135 26.8864C22.5155 26.6689 22.4725 26.4084 22.483 26.1689C22.494 25.9299 22.581 25.6799 22.7005 25.4734C22.82 25.2779 23.0155 25.0819 23.2115 24.9624C23.418 24.8429 23.668 24.7559 23.907 24.7454C24.146 24.7344 24.407 24.7779 24.6245 24.8754C24.842 24.9734 25.059 25.1364 25.2005 25.3214C25.342 25.5059 25.4505 25.7559 25.494 25.9844C25.5375 26.2124 25.5155 26.4844 25.4505 26.7124C25.3855 26.9409 25.081 27.3429 25.081 27.3429" fill="white"/>
</mask>
<g mask="url(#mask2_107_660)">
<path d="M25.929 24.3104L25.929 28.1909L22.0485 28.1909L22.0485 24.3104L25.929 24.3104Z" fill="#F9F9F2"/>
</g>
</g>
<mask id="mask3_107_660" style="mask-type:luminance" maskUnits="userSpaceOnUse" x="23" y="22" width="4" height="4">
<path d="M26.4195 22.8395L26.4195 25.8405L23.327 25.8405L23.327 22.8395L26.4195 22.8395Z" fill="white"/>
</mask>
<g mask="url(#mask3_107_660)">
<mask id="mask4_107_660" style="mask-type:luminance" maskUnits="userSpaceOnUse" x="23" y="22" width="4" height="4">
<path d="M25.32 25.8319C24.3635 25.8319 24.1135 25.7234 23.929 25.5819C23.744 25.4409 23.581 25.2234 23.483 25.0059C23.3855 24.7884 23.342 24.5279 23.3525 24.2884C23.3635 24.0494 23.4505 23.7994 23.57 23.5929C23.6895 23.3974 23.8855 23.2019 24.081 23.0819C24.2875 22.9624 24.5375 22.8754 24.7765 22.8649C25.0155 22.8539 25.2765 22.8974 25.494 22.9954C25.7115 23.0929 25.929 23.2559 26.07 23.4409C26.2115 23.6254 26.32 23.8754 26.3635 24.1039C26.407 24.3319 26.396 24.6039 26.32 24.8319C26.244 25.0604 25.9395 25.4519 25.9395 25.4519" fill="white"/>
</mask>
<g mask="url(#mask4_107_660)">
<path d="M26.7985 22.4299L26.7985 26.3104L22.918 26.3104L22.918 22.4299L26.7985 22.4299Z" fill="#F9F9F2"/>
</g>
</g>
<mask id="mask5_107_660" style="mask-type:luminance" maskUnits="userSpaceOnUse" x="22" y="22" width="4" height="4">
<path d="M25.539 22.8185L25.539 25.8285L22.4465 25.8285L22.4465 22.8185L25.539 22.8185Z" fill="white"/>
</mask>
<g mask="url(#mask5_107_660)">
<mask id="mask6_107_660" style="mask-type:luminance" maskUnits="userSpaceOnUse" x="22" y="22" width="4" height="4">
<path d="M24.4395 25.8215C23.483 25.8215 23.233 25.7125 23.0485 25.5605C22.8635 25.419 22.7005 25.202 22.6025 24.9845C22.505 24.767 22.4615 24.506 22.4725 24.267C22.483 24.028 22.57 23.778 22.6895 23.5715C22.809 23.3755 23.005 23.18 23.2005 23.0605C23.407 22.941 23.657 22.854 23.896 22.843C24.1355 22.832 24.396 22.8755 24.6135 22.9735C24.831 23.0715 25.0485 23.2455 25.1895 23.43C25.331 23.615 25.4395 23.865 25.483 24.093C25.5265 24.3215 25.5155 24.593 25.4395 24.8215C25.3635 25.0495 25.059 25.441 25.059 25.441" fill="white"/>
</mask>
<g mask="url(#mask6_107_660)">
<path d="M25.918 22.4084L25.918 26.2994L22.0375 26.2994L22.0375 22.4084L25.918 22.4084Z" fill="#F9F9F2"/>
</g>
</g>
<mask id="mask7_107_660" style="mask-type:luminance" maskUnits="userSpaceOnUse" x="23" y="24" width="4" height="4">
<path d="M26.6575 24.8719L26.6575 27.8729L23.5565 27.8729L23.5565 24.8719L26.6575 24.8719Z" fill="white"/>
</mask>
<g mask="url(#mask7_107_660)">
<mask id="mask8_107_660" style="mask-type:luminance" maskUnits="userSpaceOnUse" x="23" y="24" width="4" height="4">
<path d="M25.5591 27.8649C24.6026 27.8649 24.3526 27.7559 24.1681 27.6149C23.9831 27.4734 23.8091 27.2559 23.7116 27.0384C23.6136 26.8214 23.5701 26.5604 23.5811 26.3214C23.5921 26.0819 23.6791 25.8214 23.7986 25.6254C23.9181 25.4189 24.1136 25.2344 24.3201 25.1149C24.5266 24.9954 24.7766 24.9084 25.0156 24.8974C25.2551 24.8864 25.5156 24.9299 25.7331 25.0279C25.9506 25.1254 26.1571 25.2884 26.2986 25.4734C26.4396 25.6584 26.5591 25.9084 26.6026 26.1364C26.6461 26.3649 26.6246 26.6364 26.5591 26.8649C26.4941 27.0929 26.1791 27.4949 26.1791 27.4949" fill="white"/>
</mask>
<g mask="url(#mask8_107_660)">
<path d="M27.0375 24.4624L27.0375 28.3429L23.146 28.3429L23.146 24.4624L27.0375 24.4624Z" fill="#F9F9F2"/>
</g>
</g>
<mask id="mask9_107_660" style="mask-type:luminance" maskUnits="userSpaceOnUse" x="23" y="26" width="4" height="4">
<path d="M26.7445 26.297L26.7445 29.3065L23.6435 29.3065L23.6435 26.297L26.7445 26.297Z" fill="white"/>
</mask>
<g mask="url(#mask9_107_660)">
<mask id="mask10_107_660" style="mask-type:luminance" maskUnits="userSpaceOnUse" x="23" y="26" width="4" height="4">
<path d="M25.646 29.2995C24.6895 29.2995 24.4395 29.18 24.255 29.0385C24.07 28.8975 23.896 28.691 23.7985 28.4735C23.7005 28.256 23.657 27.995 23.668 27.756C23.679 27.517 23.7655 27.267 23.8855 27.0605C24.005 26.854 24.2005 26.6585 24.407 26.5385C24.6135 26.419 24.8635 26.332 25.1025 26.3215C25.342 26.3105 25.6025 26.365 25.82 26.4625C26.0375 26.5605 26.244 26.7235 26.3855 26.9085C26.5265 27.093 26.646 27.343 26.6895 27.5715C26.733 27.7995 26.722 28.0715 26.646 28.2995C26.57 28.528 26.2655 28.919 26.2655 28.919" fill="white"/>
</mask>
<g mask="url(#mask10_107_660)">
<path d="M27.1245 25.8865L27.1245 29.778L23.233 29.778L23.233 25.8865L27.1245 25.8865Z" fill="#F9F9F2"/>
</g>
</g>
<mask id="mask11_107_660" style="mask-type:luminance" maskUnits="userSpaceOnUse" x="23" y="27" width="4" height="4">
<path d="M26.7445 27.0785L26.7445 30.0785L23.6435 30.0785L23.6435 27.0785L26.7445 27.0785Z" fill="white"/>
</mask>
<g mask="url(#mask11_107_660)">
<mask id="mask12_107_660" style="mask-type:luminance" maskUnits="userSpaceOnUse" x="23" y="27" width="4" height="4">
<path d="M25.646 30.0715C24.6895 30.0715 24.4395 29.9625 24.255 29.8215C24.07 29.68 23.896 29.4625 23.7985 29.245C23.7005 29.028 23.657 28.767 23.668 28.528C23.679 28.2885 23.7655 28.028 23.8855 27.832C24.005 27.6255 24.2005 27.441 24.407 27.3215C24.6135 27.202 24.8635 27.115 25.1025 27.104C25.342 27.093 25.6025 27.1365 25.82 27.2345C26.0375 27.332 26.244 27.495 26.3855 27.68C26.5265 27.865 26.646 28.115 26.6895 28.343C26.733 28.5715 26.722 28.843 26.646 29.0715C26.57 29.2995 26.2655 29.691 26.2655 29.691" fill="white"/>
</mask>
<g mask="url(#mask12_107_660)">
<path d="M27.1245 26.6689L27.1245 30.5494L23.233 30.5494L23.233 26.6689L27.1245 26.6689Z" fill="#F9F9F2"/>
</g>
</g>
<mask id="mask13_107_660" style="mask-type:luminance" maskUnits="userSpaceOnUse" x="23" y="27" width="4" height="4">
<path d="M26.3325 27.3905L26.3325 30.3935L23.24 30.3935L23.24 27.3905L26.3325 27.3905Z" fill="white"/>
</mask>
<g mask="url(#mask13_107_660)">
<mask id="mask14_107_660" style="mask-type:luminance" maskUnits="userSpaceOnUse" x="23" y="27" width="4" height="4">
<path d="M25.233 30.3865C24.2765 30.3865 24.0265 30.267 23.842 30.1255C23.657 29.9845 23.494 29.778 23.396 29.5605C23.2985 29.343 23.255 29.082 23.2655 28.843C23.2765 28.604 23.3635 28.354 23.483 28.1475C23.6025 27.941 23.7875 27.745 23.994 27.6255C24.1895 27.506 24.4505 27.419 24.6895 27.4085C24.929 27.3975 25.1895 27.441 25.407 27.5385C25.6245 27.6365 25.842 27.8105 25.983 27.995C26.1245 28.18 26.233 28.43 26.2765 28.6585C26.32 28.8865 26.2985 29.1585 26.233 29.3865C26.168 29.615 25.8635 30.006 25.8635 30.006" fill="white"/>
</mask>
<g mask="url(#mask14_107_660)">
<path d="M26.7115 26.9735L26.7115 30.865L22.831 30.865L22.831 26.9735L26.7115 26.9735Z" fill="#F9F9F2"/>
</g>
</g>
<mask id="mask15_107_660" style="mask-type:luminance" maskUnits="userSpaceOnUse" x="22" y="27" width="4" height="4">
<path d="M25.7215 27.6L25.7215 30.6015L22.6535 30.6015L22.6535 27.6L25.7215 27.6Z" fill="white"/>
</mask>
<g mask="url(#mask15_107_660)">
<mask id="mask16_107_660" style="mask-type:luminance" maskUnits="userSpaceOnUse" x="22" y="27" width="4" height="4">
<path d="M24.646 30.5929C23.6895 30.5929 23.4395 30.4844 23.255 30.3429C23.07 30.2014 22.907 29.9844 22.809 29.7669C22.7115 29.5494 22.668 29.2884 22.679 29.0494C22.6895 28.8104 22.7765 28.5604 22.896 28.3539C23.0155 28.1584 23.2115 27.9624 23.407 27.8429C23.6135 27.7234 23.8635 27.6364 24.1025 27.6254C24.342 27.6149 24.6025 27.6584 24.82 27.7559C25.0375 27.8539 25.255 28.0169 25.396 28.2019C25.5375 28.3864 25.646 28.6364 25.6895 28.8649C25.733 29.0929 25.722 29.3649 25.646 29.5929C25.57 29.8214 25.2655 30.2124 25.2655 30.2124" fill="white"/>
</mask>
<g mask="url(#mask16_107_660)">
<path d="M26.1245 27.1909L26.1245 31.0714L22.244 31.0714L22.244 27.1909L26.1245 27.1909Z" fill="#F9F9F2"/>
</g>
</g>
<mask id="mask17_107_660" style="mask-type:luminance" maskUnits="userSpaceOnUse" x="22" y="26" width="4" height="4">
<path d="M25.55 26.1654L25.55 29.1664L22.4575 29.1664L22.4575 26.1654L25.55 26.1654Z" fill="white"/>
</mask>
<g mask="url(#mask17_107_660)">
<mask id="mask18_107_660" style="mask-type:luminance" maskUnits="userSpaceOnUse" x="22" y="26" width="4" height="4">
<path d="M24.4505 29.1584C23.494 29.1584 23.244 29.0494 23.059 28.9084C22.8745 28.7669 22.7115 28.5494 22.6135 28.3319C22.5155 28.1149 22.4725 27.8539 22.483 27.6149C22.494 27.3754 22.581 27.1254 22.7005 26.9189C22.82 26.7234 23.0155 26.5279 23.2115 26.4084C23.418 26.2884 23.668 26.2019 23.907 26.1909C24.146 26.1799 24.407 26.2234 24.6245 26.3214C24.842 26.4189 25.059 26.5819 25.2005 26.7669C25.342 26.9519 25.4505 27.2019 25.494 27.4299C25.5375 27.6584 25.5155 27.9299 25.4505 28.1584C25.3855 28.3864 25.081 28.7884 25.081 28.7884" fill="white"/>
</mask>
<g mask="url(#mask18_107_660)">
<path d="M25.929 25.7559L25.929 29.6364L22.0485 29.6364L22.0485 25.7559L25.929 25.7559Z" fill="#F9F9F2"/>
</g>
</g>
<mask id="mask19_107_660" style="mask-type:luminance" maskUnits="userSpaceOnUse" x="23" y="28" width="4" height="4">
<path d="M26.7225 28.0685L26.7225 31.0785L23.622 31.0785L23.622 28.0685L26.7225 28.0685Z" fill="white"/>
</mask>
<g mask="url(#mask19_107_660)">
<mask id="mask20_107_660" style="mask-type:luminance" maskUnits="userSpaceOnUse" x="23" y="28" width="4" height="4">
<path d="M25.6245 31.0715C24.668 31.0715 24.418 30.9515 24.233 30.8105C24.0485 30.669 23.8745 30.4625 23.7765 30.245C23.679 30.028 23.6355 29.767 23.646 29.528C23.657 29.2885 23.744 29.0385 23.8635 28.832C23.983 28.6255 24.179 28.43 24.3855 28.3105C24.592 28.191 24.842 28.104 25.081 28.093C25.309 28.082 25.57 28.1365 25.7875 28.2345C26.005 28.332 26.222 28.495 26.3635 28.68C26.5155 28.865 26.6245 29.115 26.668 29.343C26.7115 29.5715 26.7005 29.843 26.6245 30.0715C26.5485 30.2995 26.244 30.691 26.244 30.691" fill="white"/>
</mask>
<g mask="url(#mask20_107_660)">
<path d="M27.1025 27.6584L27.1025 31.5494L23.2115 31.5494L23.2115 27.6584L27.1025 27.6584Z" fill="#F9F9F2"/>
</g>
</g>
<mask id="mask21_107_660" style="mask-type:luminance" maskUnits="userSpaceOnUse" x="28" y="23" width="4" height="4">
<path d="M31.9935 23.2415L31.9935 26.2385L28.9215 26.2385L28.9215 23.2415L31.9935 23.2415Z" fill="white"/>
</mask>
<g mask="url(#mask21_107_660)">
<mask id="mask22_107_660" style="mask-type:luminance" maskUnits="userSpaceOnUse" x="28" y="23" width="4" height="4">
<path d="M30.918 26.2344C29.9615 26.2344 29.7115 26.1254 29.5265 25.9844C29.342 25.8429 29.168 25.6254 29.07 25.4084C28.972 25.1909 28.9285 24.9299 28.9395 24.6909C28.9505 24.4519 29.0375 24.2019 29.157 23.9954C29.2765 23.7994 29.472 23.6039 29.668 23.4844C29.8745 23.3649 30.1245 23.2779 30.3635 23.2669C30.6025 23.2559 30.8635 23.2994 31.081 23.3974C31.2985 23.4954 31.5155 23.6584 31.657 23.8429C31.809 24.0279 31.918 24.2779 31.9615 24.5059C32.005 24.7344 31.994 25.0059 31.918 25.2344C31.842 25.4624 31.5375 25.8539 31.5375 25.8539" fill="white"/>
</mask>
<g mask="url(#mask22_107_660)">
<path d="M32.3961 22.8319L32.3961 26.7124L28.5051 26.7124L28.5051 22.8319L32.3961 22.8319Z" fill="#F9F9F2"/>
</g>
</g>
<mask id="mask23_107_660" style="mask-type:luminance" maskUnits="userSpaceOnUse" x="30" y="22" width="4" height="4">
<path d="M33.4015 22.85L33.4015 25.8515L30.3295 25.8515L30.3295 22.85L33.4015 22.85Z" fill="white"/>
</mask>
<g mask="url(#mask23_107_660)">
<mask id="mask24_107_660" style="mask-type:luminance" maskUnits="userSpaceOnUse" x="30" y="22" width="4" height="4">
<path d="M32.309 25.8429C31.3525 25.8429 31.1025 25.7344 30.918 25.5929C30.733 25.4519 30.559 25.2344 30.4615 25.0169C30.3635 24.7994 30.32 24.5384 30.331 24.2994C30.342 24.0604 30.4285 23.7994 30.5485 23.6039C30.668 23.3974 30.8635 23.2124 31.07 23.0929C31.2765 22.9734 31.5265 22.8864 31.7655 22.8754C32.005 22.8649 32.2655 22.9084 32.483 23.0059C32.7005 23.1039 32.907 23.2669 33.0485 23.4519C33.1895 23.6364 33.309 23.8864 33.3525 24.1149C33.396 24.3429 33.3745 24.6149 33.309 24.8429C33.244 25.0714 32.9285 25.4734 32.9285 25.4734" fill="white"/>
</mask>
<g mask="url(#mask24_107_660)">
<path d="M33.7875 22.4409L33.7875 26.3214L29.896 26.3214L29.896 22.4409L33.7875 22.4409Z" fill="#F9F9F2"/>
</g>
</g>
<mask id="mask25_107_660" style="mask-type:luminance" maskUnits="userSpaceOnUse" x="30" y="25" width="4" height="4">
<path d="M33.3205 25.0034L33.3205 28.0129L30.2195 28.0129L30.2195 25.0034L33.3205 25.0034Z" fill="white"/>
</mask>
<g mask="url(#mask25_107_660)">
<mask id="mask26_107_660" style="mask-type:luminance" maskUnits="userSpaceOnUse" x="30" y="25" width="4" height="4">
<path d="M32.222 28.0059C31.2655 28.0059 31.0155 27.8974 30.831 27.7449C30.646 27.6039 30.483 27.3864 30.385 27.1689C30.2875 26.9519 30.233 26.6909 30.244 26.4624C30.255 26.2234 30.342 25.9734 30.4615 25.7669C30.581 25.5604 30.7765 25.3649 30.983 25.2454C31.1895 25.1254 31.4395 25.0384 31.6785 25.0279C31.918 25.0169 32.1785 25.0604 32.396 25.1584C32.6135 25.2559 32.82 25.4299 32.9615 25.6149C33.1025 25.7994 33.222 26.0494 33.2655 26.2779C33.309 26.5059 33.2985 26.7779 33.222 27.0059C33.146 27.2344 32.8415 27.6254 32.8415 27.6254" fill="white"/>
</mask>
<g mask="url(#mask26_107_660)">
<path d="M33.7004 24.5929L33.7004 28.4844L29.8089 28.4844L29.8089 24.5929L33.7004 24.5929Z" fill="#F9F9F2"/>
</g>
</g>
<mask id="mask27_107_660" style="mask-type:luminance" maskUnits="userSpaceOnUse" x="30" y="26" width="4" height="4">
<path d="M33.3965 26.3934L33.3965 29.3949L30.2955 29.3949L30.2955 26.3934L33.3965 26.3934Z" fill="white"/>
</mask>
<g mask="url(#mask27_107_660)">
<mask id="mask28_107_660" style="mask-type:luminance" maskUnits="userSpaceOnUse" x="30" y="26" width="4" height="4">
<path d="M32.2985 29.3864C31.342 29.3864 31.092 29.2669 30.907 29.1254C30.722 28.9844 30.5485 28.7779 30.4505 28.5604C30.3525 28.3429 30.309 28.0819 30.32 27.8429C30.331 27.6039 30.418 27.3539 30.5375 27.1474C30.657 26.9409 30.842 26.7449 31.0485 26.6254C31.244 26.5059 31.505 26.4299 31.744 26.4189C31.983 26.4084 32.244 26.4519 32.4615 26.5494C32.6785 26.6474 32.896 26.8104 33.0375 26.9949C33.1895 27.1799 33.2985 27.4299 33.3415 27.6584C33.385 27.8864 33.3745 28.1584 33.2985 28.3864C33.222 28.6149 32.918 29.0059 32.918 29.0059" fill="white"/>
</mask>
<g mask="url(#mask28_107_660)">
<path d="M33.7765 25.9844L33.7765 29.8649L29.885 29.8649L29.885 25.9844L33.7765 25.9844Z" fill="#F9F9F2"/>
</g>
</g>
<mask id="mask29_107_660" style="mask-type:luminance" maskUnits="userSpaceOnUse" x="30" y="27" width="4" height="4">
<path d="M33.3965 27.2629L33.3965 30.2644L30.2955 30.2644L30.2955 27.2629L33.3965 27.2629Z" fill="white"/>
</mask>
<g mask="url(#mask29_107_660)">
<mask id="mask30_107_660" style="mask-type:luminance" maskUnits="userSpaceOnUse" x="30" y="27" width="4" height="4">
<path d="M32.2985 30.2559C31.342 30.2559 31.092 30.1474 30.907 30.0059C30.722 29.8649 30.5485 29.6474 30.4505 29.4299C30.3525 29.2124 30.309 28.9514 30.32 28.7124C30.331 28.4734 30.418 28.2234 30.5375 28.0169C30.657 27.8214 30.8525 27.6254 31.0485 27.5059C31.255 27.3864 31.505 27.2994 31.744 27.2884C31.983 27.2779 32.244 27.3214 32.4615 27.4189C32.6785 27.5169 32.896 27.6799 33.0375 27.8649C33.1895 28.0494 33.2985 28.2994 33.3415 28.5279C33.385 28.7559 33.3635 29.0279 33.2985 29.2559C33.233 29.4844 32.918 29.8864 32.918 29.8864" fill="white"/>
</mask>
<g mask="url(#mask30_107_660)">
<path d="M33.7765 26.8539L33.7765 30.7344L29.885 30.7344L29.885 26.8539L33.7765 26.8539Z" fill="#F9F9F2"/>
</g>
</g>
<mask id="mask31_107_660" style="mask-type:luminance" maskUnits="userSpaceOnUse" x="30" y="27" width="4" height="4">
<path d="M33.2455 27.7209L33.2455 30.7304L30.153 30.7304L30.153 27.7209L33.2455 27.7209Z" fill="white"/>
</mask>
<g mask="url(#mask31_107_660)">
<mask id="mask32_107_660" style="mask-type:luminance" maskUnits="userSpaceOnUse" x="30" y="27" width="4" height="4">
<path d="M32.146 30.7234C31.2005 30.7234 30.9395 30.6149 30.755 30.4624C30.57 30.3214 30.407 30.1039 30.309 29.8864C30.2115 29.6689 30.168 29.4084 30.1785 29.1689C30.1895 28.9299 30.2765 28.6799 30.396 28.4734C30.5155 28.2779 30.7115 28.0819 30.907 27.9624C31.1135 27.8429 31.3635 27.7559 31.6025 27.7449C31.842 27.7344 32.1025 27.7779 32.32 27.8754C32.5375 27.9734 32.755 28.1474 32.896 28.3319C33.0375 28.5169 33.146 28.7669 33.1895 28.9949C33.233 29.2234 33.2115 29.4949 33.146 29.7234C33.081 29.9514 32.7765 30.3429 32.7765 30.3429" fill="white"/>
</mask>
<g mask="url(#mask32_107_660)">
<path d="M33.6245 27.3104L33.6245 31.2014L29.744 31.2014L29.744 27.3104L33.6245 27.3104Z" fill="#F9F9F2"/>
</g>
</g>
<mask id="mask33_107_660" style="mask-type:luminance" maskUnits="userSpaceOnUse" x="29" y="27" width="4" height="4">
<path d="M32.2345 27.7849L32.2345 30.7859L29.1425 30.7859L29.1425 27.7849L32.2345 27.7849Z" fill="white"/>
</mask>
<g mask="url(#mask33_107_660)">
<mask id="mask34_107_660" style="mask-type:luminance" maskUnits="userSpaceOnUse" x="29" y="27" width="4" height="4">
<path d="M31.135 30.7779C30.1785 30.7779 29.9285 30.6689 29.744 30.5279C29.559 30.3864 29.396 30.1689 29.2985 29.9514C29.2005 29.7344 29.157 29.4734 29.168 29.2344C29.1785 28.9949 29.2655 28.7449 29.3855 28.5384C29.505 28.3429 29.7005 28.1474 29.896 28.0279C30.1025 27.9084 30.3525 27.8214 30.592 27.8104C30.831 27.7994 31.092 27.8429 31.309 27.9409C31.5265 28.0384 31.744 28.2019 31.885 28.3864C32.0265 28.5714 32.135 28.8319 32.1785 29.0604C32.222 29.2884 32.2005 29.5494 32.135 29.7779C32.07 30.0059 31.7655 30.4084 31.7655 30.4084" fill="white"/>
</mask>
<g mask="url(#mask34_107_660)">
<path d="M32.6135 27.3754L32.6135 31.2559L28.733 31.2559L28.733 27.3754L32.6135 27.3754Z" fill="#F9F9F2"/>
</g>
</g>
<mask id="mask35_107_660" style="mask-type:luminance" maskUnits="userSpaceOnUse" x="28" y="25" width="4" height="4">
<path d="M31.951 25.3175L31.951 28.319L28.85 28.319L28.85 25.3175L31.951 25.3175Z" fill="white"/>
</mask>
<g mask="url(#mask35_107_660)">
<mask id="mask36_107_660" style="mask-type:luminance" maskUnits="userSpaceOnUse" x="28" y="25" width="4" height="4">
<path d="M30.8525 28.3105C29.896 28.3105 29.646 28.202 29.4615 28.0605C29.2765 27.919 29.1025 27.702 29.005 27.4845C28.907 27.267 28.8635 27.006 28.8745 26.767C28.8855 26.528 28.972 26.267 29.092 26.0715C29.2115 25.865 29.407 25.68 29.6135 25.5605C29.82 25.441 30.07 25.354 30.309 25.343C30.5485 25.332 30.809 25.3755 31.0265 25.4735C31.244 25.5715 31.4505 25.7345 31.592 25.919C31.733 26.104 31.8525 26.365 31.896 26.593C31.9395 26.8215 31.918 27.082 31.8525 27.3105C31.7875 27.5385 31.472 27.941 31.472 27.941" fill="white"/>
</mask>
<g mask="url(#mask36_107_660)">
<path d="M32.331 24.9084L32.331 28.7884L28.4395 28.7884L28.4395 24.9084L32.331 24.9084Z" fill="#F9F9F2"/>
</g>
</g>
<mask id="mask37_107_660" style="mask-type:luminance" maskUnits="userSpaceOnUse" x="15" y="23" width="5" height="4">
<path d="M19.05 23.7739L19.05 26.7754L15.9575 26.7754L15.9575 23.7739L19.05 23.7739Z" fill="white"/>
</mask>
<g mask="url(#mask37_107_660)">
<mask id="mask38_107_660" style="mask-type:luminance" maskUnits="userSpaceOnUse" x="15" y="23" width="5" height="4">
<path d="M17.9505 26.7669C16.994 26.7669 16.744 26.6584 16.5595 26.5169C16.3745 26.3754 16.2115 26.1584 16.1135 25.9409C16.016 25.7234 15.9725 25.4624 15.983 25.2234C15.994 24.9844 16.081 24.7344 16.2005 24.5279C16.32 24.3319 16.516 24.1364 16.7115 24.0169C16.918 23.8974 17.168 23.8104 17.407 23.7994C17.646 23.7884 17.907 23.8319 18.1245 23.9299C18.342 24.0279 18.559 24.1909 18.7005 24.3754C18.842 24.5604 18.9505 24.8104 18.994 25.0384C19.0375 25.2669 19.016 25.5384 18.9505 25.7669C18.8855 25.9949 18.57 26.3974 18.57 26.3974" fill="white"/>
</mask>
<g mask="url(#mask38_107_660)">
<path d="M19.429 23.3649L19.429 27.2449L15.5485 27.2449L15.5485 23.3649L19.429 23.3649Z" fill="#F9F9F2"/>
</g>
</g>
<mask id="mask39_107_660" style="mask-type:luminance" maskUnits="userSpaceOnUse" x="17" y="22" width="4" height="4">
<path d="M20.4305 22.4265L20.4305 25.4275L17.338 25.4275L17.338 22.4265L20.4305 22.4265Z" fill="white"/>
</mask>
<g mask="url(#mask39_107_660)">
<mask id="mask40_107_660" style="mask-type:luminance" maskUnits="userSpaceOnUse" x="17" y="22" width="4" height="4">
<path d="M19.331 25.419C18.3745 25.419 18.1245 25.3105 17.9395 25.169C17.755 25.028 17.592 24.8105 17.494 24.593C17.396 24.3755 17.3525 24.115 17.3635 23.8755C17.3745 23.6365 17.4615 23.3865 17.581 23.18C17.7005 22.9845 17.896 22.7885 18.092 22.669C18.2985 22.5495 18.5485 22.4625 18.7875 22.452C19.0265 22.441 19.2875 22.4845 19.505 22.582C19.7225 22.68 19.9395 22.843 20.081 23.028C20.2225 23.2125 20.331 23.4625 20.3745 23.691C20.418 23.919 20.396 24.191 20.331 24.419C20.266 24.6475 19.9505 25.0495 19.9505 25.0495" fill="white"/>
</mask>
<g mask="url(#mask40_107_660)">
<path d="M20.809 22.017L20.809 25.8975L16.929 25.8975L16.929 22.017L20.809 22.017Z" fill="#F9F9F2"/>
</g>
</g>
<mask id="mask41_107_660" style="mask-type:luminance" maskUnits="userSpaceOnUse" x="15" y="22" width="4" height="4">
<path d="M18.7345 22.5349L18.7345 25.5359L15.6425 25.5359L15.6425 22.5349L18.7345 22.5349Z" fill="white"/>
</mask>
<g mask="url(#mask41_107_660)">
<mask id="mask42_107_660" style="mask-type:luminance" maskUnits="userSpaceOnUse" x="15" y="22" width="4" height="4">
<path d="M17.6355 25.5279C16.6895 25.5279 16.429 25.4189 16.244 25.2779C16.0595 25.1364 15.896 24.9189 15.7985 24.7019C15.7005 24.4844 15.657 24.2234 15.668 23.9844C15.679 23.7454 15.766 23.4954 15.8855 23.2884C16.005 23.0929 16.2005 22.8974 16.396 22.7779C16.6025 22.6584 16.8525 22.5714 17.092 22.5604C17.331 22.5494 17.592 22.5929 17.809 22.6909C18.0265 22.7884 18.244 22.9519 18.3855 23.1364C18.5265 23.3214 18.6355 23.5714 18.679 23.7994C18.7225 24.0279 18.7005 24.2994 18.6355 24.5279C18.57 24.7559 18.266 25.1474 18.266 25.1474" fill="white"/>
</mask>
<g mask="url(#mask42_107_660)">
<path d="M19.1135 22.1254L19.1135 26.0059L15.233 26.0059L15.233 22.1254L19.1135 22.1254Z" fill="#F9F9F2"/>
</g>
</g>
<mask id="mask43_107_660" style="mask-type:luminance" maskUnits="userSpaceOnUse" x="15" y="25" width="4" height="4">
<path d="M18.9075 25.949L18.9075 28.959L15.8065 28.959L15.8065 25.949L18.9075 25.949Z" fill="white"/>
</mask>
<g mask="url(#mask43_107_660)">
<mask id="mask44_107_660" style="mask-type:luminance" maskUnits="userSpaceOnUse" x="15" y="25" width="4" height="4">
<path d="M17.809 28.9515C16.8525 28.9515 16.6025 28.832 16.418 28.691C16.233 28.5385 16.0595 28.332 15.9615 28.115C15.8635 27.8975 15.82 27.6365 15.831 27.3975C15.842 27.1585 15.929 26.8975 16.0485 26.702C16.168 26.495 16.3635 26.3105 16.57 26.191C16.7765 26.0715 17.0265 25.9845 17.266 25.9735C17.494 25.9625 17.755 26.006 17.9725 26.104C18.1895 26.202 18.396 26.3755 18.5485 26.5605C18.6895 26.745 18.809 26.995 18.8525 27.2235C18.896 27.452 18.8855 27.7235 18.809 27.952C18.733 28.18 18.429 28.5715 18.429 28.5715" fill="white"/>
</mask>
<g mask="url(#mask44_107_660)">
<path d="M19.2875 25.5385L19.2875 29.43L15.396 29.43L15.396 25.5385L19.2875 25.5385Z" fill="#F9F9F2"/>
</g>
</g>
<mask id="mask45_107_660" style="mask-type:luminance" maskUnits="userSpaceOnUse" x="17" y="23" width="4" height="4">
<path d="M20.1465 23.7424L20.1465 26.7504L17.0455 26.7504L17.0455 23.7424L20.1465 23.7424Z" fill="white"/>
</mask>
<g mask="url(#mask45_107_660)">
<mask id="mask46_107_660" style="mask-type:luminance" maskUnits="userSpaceOnUse" x="17" y="23" width="4" height="4">
<path d="M19.0485 26.7449C18.092 26.7449 17.842 26.6364 17.657 26.4844C17.4725 26.3429 17.309 26.1254 17.2115 25.9084C17.1135 25.6909 17.0595 25.4299 17.07 25.1909C17.081 24.9519 17.168 24.6909 17.2875 24.4954C17.407 24.2884 17.6025 24.1039 17.809 23.9844C18.016 23.8649 18.266 23.7779 18.505 23.7669C18.744 23.7559 19.005 23.7994 19.2225 23.8974C19.4395 23.9954 19.646 24.1689 19.7875 24.3539C19.929 24.5384 20.0485 24.7884 20.092 25.0169C20.1355 25.2454 20.1245 25.5169 20.0485 25.7449C19.9725 25.9734 19.668 26.3649 19.668 26.3649" fill="white"/>
</mask>
<g mask="url(#mask46_107_660)">
<path d="M20.5265 23.3319L20.5265 27.2234L16.6355 27.2234L16.6355 23.3319L20.5265 23.3319Z" fill="#F9F9F2"/>
</g>
</g>
<mask id="mask47_107_660" style="mask-type:luminance" maskUnits="userSpaceOnUse" x="17" y="25" width="4" height="4">
<path d="M20.1465 25.9265L20.1465 28.9265L17.0455 28.9265L17.0455 25.9265L20.1465 25.9265Z" fill="white"/>
</mask>
<g mask="url(#mask47_107_660)">
<mask id="mask48_107_660" style="mask-type:luminance" maskUnits="userSpaceOnUse" x="17" y="25" width="4" height="4">
<path d="M19.0485 28.919C18.092 28.919 17.842 28.8105 17.657 28.669C17.4725 28.528 17.309 28.3105 17.2115 28.093C17.1135 27.8755 17.0595 27.615 17.07 27.3755C17.081 27.1365 17.168 26.8755 17.2875 26.68C17.407 26.4735 17.6025 26.2885 17.809 26.169C18.016 26.0495 18.266 25.9625 18.505 25.952C18.744 25.941 19.005 25.9845 19.2225 26.082C19.4395 26.18 19.646 26.343 19.7875 26.528C19.929 26.7125 20.0485 26.9625 20.092 27.191C20.1355 27.419 20.1135 27.691 20.0485 27.919C19.983 28.1475 19.668 28.5495 19.668 28.5495" fill="white"/>
</mask>
<g mask="url(#mask48_107_660)">
<path d="M20.5265 25.517L20.5265 29.3975L16.6355 29.3975L16.6355 25.517L20.5265 25.517Z" fill="#F9F9F2"/>
</g>
</g>
<mask id="mask49_107_660" style="mask-type:luminance" maskUnits="userSpaceOnUse" x="17" y="27" width="4" height="4">
<path d="M20.267 27.4805L20.267 30.482L17.175 30.482L17.175 27.4805L20.267 27.4805Z" fill="white"/>
</mask>
<g mask="url(#mask49_107_660)">
<mask id="mask50_107_660" style="mask-type:luminance" maskUnits="userSpaceOnUse" x="17" y="27" width="4" height="4">
<path d="M19.168 30.4734C18.2115 30.4734 17.9615 30.3649 17.7765 30.2234C17.592 30.0819 17.429 29.8649 17.331 29.6474C17.233 29.4299 17.1895 29.1689 17.2005 28.9299C17.2115 28.6909 17.2985 28.4409 17.418 28.2344C17.5375 28.0384 17.733 27.8429 17.929 27.7234C18.1355 27.6039 18.3855 27.5169 18.6245 27.5059C18.8635 27.4949 19.1245 27.5384 19.342 27.6364C19.559 27.7344 19.7765 27.8974 19.918 28.0819C20.059 28.2669 20.168 28.5169 20.2115 28.7449C20.255 28.9734 20.233 29.2449 20.168 29.4734C20.1025 29.7014 19.7985 30.0929 19.7985 30.0929" fill="white"/>
</mask>
<g mask="url(#mask50_107_660)">
<path d="M20.646 27.0714L20.646 30.9514L16.766 30.9514L16.766 27.0714L20.646 27.0714Z" fill="#F9F9F2"/>
</g>
</g>
<mask id="mask51_107_660" style="mask-type:luminance" maskUnits="userSpaceOnUse" x="15" y="27" width="5" height="4">
<path d="M19.0655 27.699L19.0655 30.709L15.9935 30.709L15.9935 27.699L19.0655 27.699Z" fill="white"/>
</mask>
<g mask="url(#mask51_107_660)">
<mask id="mask52_107_660" style="mask-type:luminance" maskUnits="userSpaceOnUse" x="16" y="27" width="4" height="4">
<path d="M17.9725 30.7015C17.0265 30.7015 16.766 30.593 16.581 30.441C16.396 30.2995 16.233 30.082 16.1355 29.865C16.0375 29.6475 15.994 29.3865 16.005 29.1475C16.016 28.9085 16.1025 28.6585 16.2225 28.452C16.342 28.256 16.5375 28.0605 16.733 27.941C16.9395 27.8215 17.1895 27.7345 17.429 27.7235C17.668 27.7125 17.929 27.756 18.146 27.854C18.3635 27.952 18.57 28.1255 18.7225 28.3105C18.8635 28.495 18.983 28.745 19.0265 28.9735C19.07 29.2015 19.0485 29.4735 18.9725 29.7015C18.896 29.93 18.6025 30.3215 18.6025 30.3215" fill="white"/>
</mask>
<g mask="url(#mask52_107_660)">
<path d="M19.4615 27.2885L19.4615 31.18L15.57 31.18L15.57 27.2885L19.4615 27.2885Z" fill="#F9F9F2"/>
</g>
</g>
</svg>
