<svg width="43" height="43" viewBox="0 0 43 43" fill="none" xmlns="http://www.w3.org/2000/svg">
<path d="M42.3619 21.1809C42.3619 25.3701 41.1197 29.4653 38.7923 32.9484C36.4649 36.4316 33.1569 39.1465 29.2866 40.7496C25.4162 42.3527 21.1575 42.7722 17.0488 41.9549C12.9401 41.1376 9.16597 39.1203 6.20377 36.1581C3.24156 33.1959 1.22427 29.4218 0.406996 25.3131C-0.410276 21.2044 0.00917736 16.9457 1.61231 13.0753C3.21545 9.20504 5.93026 5.89703 9.41345 3.56963C12.8966 1.24224 16.9918 0 21.181 0C23.9625 0 26.7168 0.547861 29.2866 1.6123C31.8563 2.67675 34.1913 4.23692 36.1581 6.20376C38.125 8.17059 39.6852 10.5056 40.7496 13.0753C41.814 15.6451 42.3619 18.3994 42.3619 21.1809ZM12.2559 12.0499C12.2559 11.4879 12.0327 10.949 11.6353 10.5516C11.2379 10.1542 10.699 9.93099 10.137 9.93099H10.1317C9.58307 9.9505 9.06346 10.1821 8.68227 10.5771C8.30107 10.9721 8.08804 11.4996 8.08804 12.0486C8.08804 12.5975 8.30107 13.125 8.68227 13.52C9.06346 13.915 9.58307 14.1466 10.1317 14.1661H10.137C10.6985 14.1661 11.2371 13.9432 11.6343 13.5464C12.0316 13.1497 12.2552 12.6114 12.2559 12.0499ZM12.2559 21.3468C12.2552 20.7853 12.0316 20.2471 11.6343 19.8503C11.2371 19.4535 10.6985 19.2306 10.137 19.2306H10.1317C9.58307 19.2501 9.06346 19.4817 8.68227 19.8767C8.30107 20.2717 8.08804 20.7992 8.08804 21.3482C8.08804 21.8971 8.30107 22.4246 8.68227 22.8196C9.06346 23.2146 9.58307 23.4462 10.1317 23.4657H10.137C10.699 23.4657 11.2379 23.2425 11.6353 22.8451C12.0327 22.4477 12.2559 21.9088 12.2559 21.3468ZM12.2559 30.6464C12.2552 30.0849 12.0316 29.5467 11.6343 29.1499C11.2371 28.7531 10.6985 28.5302 10.137 28.5302H10.1317C9.84724 28.5201 9.56371 28.5674 9.29797 28.6692C9.03223 28.7711 8.78973 28.9255 8.58495 29.1231C8.38016 29.3207 8.21729 29.5576 8.10605 29.8195C7.99481 30.0815 7.93748 30.3632 7.93748 30.6478C7.93748 30.9324 7.99481 31.214 8.10605 31.476C8.21729 31.7379 8.38016 31.9748 8.58495 32.1724C8.78973 32.3701 9.03223 32.5244 9.29797 32.6263C9.56371 32.7281 9.84724 32.7754 10.1317 32.7653H10.137C10.699 32.7653 11.2379 32.5421 11.6353 32.1447C12.0327 31.7473 12.2559 31.2084 12.2559 30.6464ZM34.4241 12.0499C34.4234 11.4884 34.1998 10.9501 33.8025 10.5533C33.4052 10.1565 32.8667 9.93367 32.3052 9.93367H16.9592C16.6748 9.92356 16.3913 9.97085 16.1255 10.0727C15.8598 10.1746 15.6173 10.3289 15.4125 10.5266C15.2077 10.7242 15.0449 10.961 14.9336 11.223C14.8224 11.485 14.765 11.7666 14.765 12.0512C14.765 12.3358 14.8224 12.6175 14.9336 12.8795C15.0449 13.1414 15.2077 13.3783 15.4125 13.5759C15.6173 13.7735 15.8598 13.9279 16.1255 14.0297C16.3913 14.1316 16.6748 14.1789 16.9592 14.1688H32.3052C32.8667 14.1688 33.4052 13.9459 33.8025 13.5491C34.1998 13.1523 34.4234 12.6114 34.4241 12.0499ZM34.4241 21.3495C34.4234 20.788 34.1998 20.2497 33.8025 19.8529C33.4052 19.4561 32.8667 19.2333 32.3052 19.2333H16.9592C16.6748 19.2232 16.3913 19.2705 16.1255 19.3723C15.8598 19.4742 15.6173 19.6285 15.4125 19.8262C15.2077 20.0238 15.0449 20.2607 14.9336 20.5226C14.8224 20.7846 14.765 21.0662 14.765 21.3508C14.765 21.6354 14.8224 21.9171 14.9336 22.1791C15.0449 22.441 15.2077 22.6779 15.4125 22.8755C15.6173 23.0731 15.8598 23.2275 16.1255 23.3294C16.3913 23.4312 16.6748 23.4785 16.9592 23.4684H32.3052C32.5834 23.4684 32.859 23.4136 33.116 23.3071C33.3731 23.2006 33.6067 23.0445 33.8035 22.8478C34.0002 22.651 34.1563 22.4174 34.2628 22.1604C34.3693 21.9033 34.4241 21.6278 34.4241 21.3495ZM34.4241 30.6491C34.4234 30.0876 34.1998 29.5493 33.8025 29.1525C33.4052 28.7557 32.8667 28.5329 32.3052 28.5329H16.9592C16.6748 28.5228 16.3913 28.5701 16.1255 28.6719C15.8598 28.7738 15.6173 28.9281 15.4125 29.1258C15.2077 29.3234 15.0449 29.5603 14.9336 29.8222C14.8224 30.0842 14.765 30.3658 14.765 30.6504C14.765 30.935 14.8224 31.2167 14.9336 31.4787C15.0449 31.7406 15.2077 31.9775 15.4125 32.1751C15.6173 32.3727 15.8598 32.5271 16.1255 32.629C16.3913 32.7308 16.6748 32.7781 16.9592 32.768H32.3052C32.5834 32.768 32.859 32.7132 33.116 32.6067C33.3731 32.5002 33.6067 32.3441 33.8035 32.1474C34.0002 31.9506 34.1563 31.717 34.2628 31.46C34.3693 31.2029 34.4241 30.9274 34.4241 30.6491Z" fill="black"/>
</svg>
