<svg width="43" height="43" viewBox="0 0 43 43" fill="none" xmlns="http://www.w3.org/2000/svg">
<path d="M21.18 0C9.48383 0 0 9.48239 0 21.18C0 32.8776 9.4829 42.36 21.18 42.36C32.878 42.36 42.36 32.8776 42.36 21.18C42.36 9.48239 32.878 0 21.18 0ZM21.18 6.33307C25.0502 6.33307 28.1864 9.47029 28.1864 13.3388C28.1864 17.2082 25.0502 20.3445 21.18 20.3445C17.3117 20.3445 14.1755 17.2082 14.1755 13.3388C14.1755 9.47029 17.3117 6.33307 21.18 6.33307ZM21.1753 36.8224C17.3154 36.8224 13.7801 35.4166 11.0533 33.0897C10.389 32.5231 10.0057 31.6923 10.0057 30.8206C10.0057 26.8972 13.181 23.7571 17.1051 23.7571H25.2567C29.1818 23.7571 32.3449 26.8972 32.3449 30.8206C32.3449 31.6932 31.9635 32.5222 31.2983 33.0888C28.5724 35.4166 25.0362 36.8224 21.1753 36.8224Z" fill="black"/>
</svg>
