<svg width="43" height="43" viewBox="0 0 43 43" fill="none" xmlns="http://www.w3.org/2000/svg">
<path fill-rule="evenodd" clip-rule="evenodd" d="M0 21.18C0 9.48229 9.48229 0 21.18 0C32.8777 0 42.36 9.48229 42.36 21.18C42.36 32.8777 32.8777 42.36 21.18 42.36C9.48229 42.36 0 32.8777 0 21.18ZM14.826 20.121C14.826 18.7167 15.3839 17.3699 16.3769 16.3769C17.3699 15.3839 18.7167 14.826 20.121 14.826C21.5253 14.826 22.8721 15.3839 23.8651 16.3769C24.8581 17.3699 25.416 18.7167 25.416 20.121C25.416 21.5253 24.8581 22.8721 23.8651 23.8651C22.8721 24.8581 21.5253 25.416 20.121 25.416C18.7167 25.416 17.3699 24.8581 16.3769 23.8651C15.3839 22.8721 14.826 21.5253 14.826 20.121ZM20.121 10.59C18.6441 10.5905 17.1875 10.9342 15.8662 11.594C14.5448 12.2538 13.3949 13.2116 12.5072 14.3919C11.6194 15.5722 11.0181 16.9426 10.7506 18.3951C10.4832 19.8476 10.557 21.3424 10.9661 22.7615C11.3753 24.1806 12.1086 25.4852 13.1083 26.5723C14.108 27.6595 15.3467 28.4994 16.7265 29.0259C18.1064 29.5523 19.5898 29.7509 21.0595 29.606C22.5293 29.461 23.9453 28.9765 25.1957 28.1906L28.1546 31.1494C28.554 31.5352 29.089 31.7487 29.6444 31.7439C30.1997 31.7391 30.7309 31.5163 31.1236 31.1236C31.5163 30.7309 31.7391 30.1997 31.7439 29.6444C31.7487 29.089 31.5352 28.554 31.1494 28.1546L28.1906 25.1957C29.0978 23.7535 29.6018 22.0944 29.6501 20.3913C29.6984 18.6882 29.2893 17.0032 28.4653 15.5119C27.6414 14.0205 26.4327 12.7773 24.9651 11.9117C23.4976 11.0461 21.8248 10.5897 20.121 10.59Z" fill="black"/>
</svg>
